<svg height="512pt" viewBox="0 -48 512 512" width="512pt" xmlns="http://www.w3.org/2000/svg"><path d="m127.769531 32.058594h344.621094v15.101562h-344.621094zm0 0"/><path d="m47.164062 264.011719h-15.105468v-159.824219h39.609375v15.105469h-24.503907zm0 0"/><path d="m15.105469 79.21875h128.691406v-15.105469h-128.691406v-49.007812h361.113281v-15.105469h-376.21875v415.824219h264.015625v-15.101563h-248.910156zm0 0"/><path d="m400.261719 0v15.105469h96.632812v49.007812h-329.054687v15.105469h329.054687v321.503906h-208.835937v15.101563h223.941406v-415.824219zm0 0"/><path d="m39.609375 32.058594h16.03125v15.101562h-16.03125zm0 0"/><path d="m71.667969 32.058594h16.027343v15.101562h-16.027343zm0 0"/><path d="m295.609375 238.976562c13.453125 10.371094 30.285156 16.558594 48.546875 16.558594 43.9375 0 79.683594-35.742187 79.683594-79.679687s-35.746094-79.683594-79.683594-79.683594c-43.933594 0-79.679688 35.746094-79.679688 79.683594 0 2.863281.160157 5.691406.457032 8.476562h-88.617188v120.726563c-6.746094-5.332032-15.257812-8.527344-24.503906-8.527344-21.839844 0-39.609375 17.769531-39.609375 39.613281 0 21.839844 17.769531 39.609375 39.609375 39.609375s39.609375-17.769531 39.609375-39.609375v-136.707031h76.617187c2.777344 8.941406 7.097657 17.210938 12.636719 24.503906h-.171875v33.03125c-6.746094-5.332031-15.257812-8.527344-24.503906-8.527344-21.839844 0-39.609375 17.769532-39.609375 39.613282 0 21.839844 17.769531 39.609375 39.609375 39.609375s39.609375-17.769531 39.609375-39.609375zm-143.796875 121.671876c-13.511719 0-24.507812-10.992188-24.507812-24.503907 0-13.515625 10.996093-24.507812 24.507812-24.507812s24.503906 10.992187 24.503906 24.507812c0 13.511719-10.992187 24.503907-24.503906 24.503907zm192.347656-249.371094c35.605469 0 64.574219 28.96875 64.574219 64.578125s-28.96875 64.578125-64.574219 64.578125c-35.609375 0-64.578125-28.96875-64.578125-64.578125s28.96875-64.578125 64.578125-64.578125zm-88.160156 201.285156c-13.511719 0-24.503906-10.992188-24.503906-24.507812 0-13.511719 10.992187-24.503907 24.503906-24.503907s24.507812 10.992188 24.507812 24.503907c0 13.515624-10.996093 24.507812-24.507812 24.507812zm0 0"/><path d="m336.605469 207.914062h15.105469v-24.507812h24.507812v-15.101562h-24.507812v-24.507813h-15.105469v24.507813h-24.503907v15.101562h24.503907zm0 0"/><path d="m32.058594 280.042969h15.105468v16.027343h-15.105468zm0 0"/><path d="m32.058594 312.101562h15.105468v16.027344h-15.105468zm0 0"/><path d="m479.941406 383.769531h-47.625v-15.105469h32.519532v-32.519531h15.105468zm0 0"/></svg>