<svg enable-background="new 0 0 256 256" height="512" viewBox="0 0 256 256" width="512" xmlns="http://www.w3.org/2000/svg"><path d="m219.38 5.723h-90.784c-17.236 0-31.208 13.972-31.208 31.208v85.003c0 17.236 13.972 31.208 31.208 31.208h53.911c-.932 18.13-9.683 35.879-16.923 47.655-3.189 5.187 2.211 11.383 7.808 8.986 26.873-11.509 43.046-37.181 52.009-57.227 14.353-2.806 25.187-15.447 25.187-30.622v-85.003c0-17.236-13.972-31.208-31.208-31.208z" fill="#44c7b6"/><path d="m143.596 153.142h-15c-17.24 0-31.21-13.97-31.21-31.21v-85c0-17.24 13.97-31.21 31.21-31.21h15c-17.24 0-31.21 13.97-31.21 31.21v85c0 17.24 13.97 31.21 31.21 31.21z" fill="#4bdbc3"/><path d="m250.586 36.932v85c0 11.31-6.01 21.2-15.01 26.68 0-1.001.01-14.2.01-111.68 0-17.24-13.97-31.21-31.21-31.21h15c17.24 0 31.21 13.97 31.21 31.21z" fill="#3bb2a0"/><path d="m118.406 45.67h-81.784c-17.236 0-31.208 13.972-31.208 31.208v85.003c0 17.236 13.972 31.208 31.208 31.208h15.645c9.016 19.957 25.137 45.244 51.748 56.641 5.597 2.397 10.997-3.799 7.808-8.986-7.24-11.775-15.99-29.525-16.923-47.655h23.506c17.236 0 31.208-13.972 31.208-31.208v-85.003c0-17.236-13.972-31.208-31.208-31.208z" fill="#ffe2e2"/><path d="m51.626 193.092h-15c-17.24 0-31.21-13.98-31.21-31.21v-85c0-17.24 13.97-31.21 31.21-31.21h15c-17.24 0-31.21 13.97-31.21 31.21v85c0 17.23 13.97 31.21 31.21 31.21z" fill="#ffefee"/><path d="m149.616 76.882v85c0 17.23-13.97 31.21-31.21 31.21h-15c17.24 0 31.21-13.98 31.21-31.21v-85c0-17.24-13.97-31.21-31.21-31.21h15c17.24 0 31.21 13.97 31.21 31.21z" fill="#ffcfcf"/><g fill="#5f266d"><path d="m219.376 1.723h-90.779c-19.415 0-35.21 15.795-35.21 35.21v4.737h-56.765c-19.414 0-35.208 15.794-35.208 35.208v85.003c0 19.414 15.794 35.208 35.208 35.208h13.085c9.321 19.816 25.82 44.791 52.733 56.317 9.179 3.934 18.027-6.241 12.791-14.757-6.396-10.403-14.079-25.71-15.973-41.561h19.149c19.414 0 35.208-15.794 35.208-35.208v-4.738h24.536c-1.893 15.854-9.575 31.156-15.973 41.556-5.221 8.497 3.591 18.704 12.794 14.761 27.354-11.717 43.966-37.32 53.256-57.445 15.394-3.976 26.358-17.984 26.358-34.081v-85c0-19.416-15.795-35.21-35.21-35.21zm-73.762 160.158c0 15.003-12.205 27.208-27.208 27.208h-23.505c-2.289 0-4.112 1.92-3.995 4.205.977 19.002 10.061 37.431 17.51 49.545 1.143 1.86-.791 4.085-2.826 3.214-25.626-10.975-41.159-35.755-49.677-54.61-.647-1.433-2.074-2.354-3.646-2.354h-15.645c-15.002 0-27.208-12.205-27.208-27.208v-85.003c0-15.003 12.205-27.208 27.208-27.208h81.784c15.003 0 27.208 12.205 27.208 27.208zm3.301-102.542h10.599c1.106 6.309 4.571 19.613 15.111 32.981-5.86 6.187-12.902 11.443-21.011 15.702v-31.144c0-6.384-1.716-12.371-4.699-17.539zm18.734 0h24.627c-1.196 5.635-4.345 16.075-12.348 26.73-8.067-10.705-11.137-21.093-12.279-26.73zm78.937 62.593c0 12.985-9.229 24.212-21.946 26.694-1.277.249-2.354 1.104-2.885 2.292-8.532 19.073-24.122 44.13-49.935 55.187-2.036.871-3.971-1.356-2.827-3.218 7.448-12.108 16.533-30.532 17.508-49.54.117-2.292-1.712-4.205-3.995-4.205h-28.892v-32.189c10.217-4.84 19.055-11.057 26.309-18.576 14.477 14.968 35.481 23.148 38.232 23.148 4.464 0 5.561-6.277 1.335-7.771-15.586-5.516-26.552-13.321-34.271-21.446 10.592-13.427 14.103-26.698 15.227-32.97h13.798c2.209 0 4-1.791 4-4s-1.791-4-4-4h-30.256v-10c0-2.209-1.791-4-4-4s-4 1.791-4 4v10h-33.256c-.04 0-.077.01-.116.012-6.315-5.992-14.837-9.681-24.21-9.681h-17.02v-4.737c0-15.004 12.207-27.21 27.21-27.21h90.779c15.004 0 27.21 12.206 27.21 27.21v85z"/><path d="m82.72 77.861c-.785-2.167-2.843-3.61-5.148-3.61-2.302 0-4.359 1.44-5.145 3.604l-29.348 80.707c-1.051 2.89 1.089 5.945 4.164 5.945h.067c1.867 0 3.533-1.17 4.167-2.925l6.785-18.779h39.044l6.278 18.685c.606 1.804 2.297 3.02 4.2 3.02 3.073 0 5.212-3.051 4.166-5.94zm-21.621 56.821 16.41-45.844 16.41 45.844z"/><path d="m153.323 16.843h-3.544c-2.209 0-4 1.791-4 4s1.791 4 4 4h3.544c2.209 0 4-1.791 4-4s-1.791-4-4-4z"/><path d="m134.779 16.843h-7.664c-7.938 0-14.396 6.458-14.396 14.396 0 2.209 1.791 4 4 4s4-1.791 4-4c0-3.527 2.869-6.396 6.396-6.396h7.664c2.209 0 4-1.791 4-4s-1.791-4-4-4z"/></g></svg>